<svg xmlns="http://www.w3.org/2000/svg" viewBox="0 0 680 324" width="100%" role="img" aria-label="Progress across releases"><style>
  .bg{fill:#fcfcfb}.t1{fill:#0b0b0b}.t2{fill:#52514e}.grid{stroke:#e1e0d9}
  .s1{fill:#2a78d6;stroke:#2a78d6}.s2{fill:#eb6834;stroke:#eb6834}.ring{stroke:#fcfcfb}
  .l1{fill:none;stroke:#2a78d6}.l2{fill:none;stroke:#eb6834}
  .ref{stroke:#8a8983}
  text{font-family:system-ui,-apple-system,'Segoe UI',Roboto,sans-serif}
  @media (prefers-color-scheme:dark){
    .bg{fill:#1a1a19}.t1{fill:#ffffff}.t2{fill:#c3c2b7}.grid{stroke:#2c2c2a}
    .s1{fill:#3987e5;stroke:#3987e5}.s2{fill:#d95926;stroke:#d95926}.ring{stroke:#1a1a19}
    .l1{stroke:#3987e5}.l2{stroke:#d95926}
    .ref{stroke:#8a8983}
  }
</style><rect class="bg" width="680" height="324" rx="10"/><text class="t1" x="24" y="34" font-size="17" font-weight="650">Progress across releases</text><text class="t2" x="24" y="56" font-size="13">Same evaluation set: demo_traffic.jsonl</text><rect class="s1" x="24" y="71" width="10" height="10" rx="2" stroke-width="0"/><text class="t2" x="40" y="80" font-size="12">attacks caught (recall)</text><rect class="s2" x="213.6" y="71" width="10" height="10" rx="2" stroke-width="0"/><text class="t2" x="229.6" y="80" font-size="12">harmless messages blocked (FPR)</text><line class="grid" x1="64" x2="570" y1="280.0" y2="280.0" stroke-width="1"/><text class="t2" x="56" y="284.0" font-size="11" text-anchor="end">0%</text><line class="grid" x1="64" x2="570" y1="234.0" y2="234.0" stroke-width="1"/><text class="t2" x="56" y="238.0" font-size="11" text-anchor="end">25%</text><line class="grid" x1="64" x2="570" y1="188.0" y2="188.0" stroke-width="1"/><text class="t2" x="56" y="192.0" font-size="11" text-anchor="end">50%</text><line class="grid" x1="64" x2="570" y1="142.0" y2="142.0" stroke-width="1"/><text class="t2" x="56" y="146.0" font-size="11" text-anchor="end">75%</text><line class="grid" x1="64" x2="570" y1="96.0" y2="96.0" stroke-width="1"/><text class="t2" x="56" y="100.0" font-size="11" text-anchor="end">100%</text><text class="t1" x="64.0" y="300" font-size="12" text-anchor="middle">v0.1</text><text class="t1" x="317.0" y="300" font-size="12" text-anchor="middle">v0.1.1</text><text class="t1" x="570.0" y="300" font-size="12" text-anchor="middle">v0.3</text><polyline class="l1" points="64.0,176.5 317.0,170.8 570.0,101.8" stroke-width="2" stroke-linejoin="round" stroke-linecap="round"/><circle class="s1 ring" cx="64.0" cy="176.5" r="5" stroke-width="2"><title>v0.1: recall 56%</title></circle><circle class="s1 ring" cx="317.0" cy="170.8" r="5" stroke-width="2"><title>v0.1.1: recall 59%</title></circle><circle class="s1 ring" cx="570.0" cy="101.8" r="5" stroke-width="2"><title>v0.3: recall 97%</title></circle><text class="t1" x="580.0" y="105.75" font-size="12" font-weight="600">97%<tspan class="t2" font-weight="400"> recall</tspan></text><polyline class="l2" points="64.0,256.0 317.0,256.0 570.0,216.0" stroke-width="2" stroke-linejoin="round" stroke-linecap="round"/><circle class="s2 ring" cx="64.0" cy="256.0" r="5" stroke-width="2"><title>v0.1: FPR 13%</title></circle><circle class="s2 ring" cx="317.0" cy="256.0" r="5" stroke-width="2"><title>v0.1.1: FPR 13%</title></circle><circle class="s2 ring" cx="570.0" cy="216.0" r="5" stroke-width="2"><title>v0.3: FPR 35%</title></circle><text class="t1" x="580.0" y="220.0" font-size="12" font-weight="600">35%<tspan class="t2" font-weight="400"> FPR</tspan></text></svg>