<svg xmlns="http://www.w3.org/2000/svg" viewBox="0 0 680 352" width="100%" role="img" aria-label="Threshold trade-off: retrieved messages"><style>
  .bg{fill:#fcfcfb}.t1{fill:#0b0b0b}.t2{fill:#52514e}.grid{stroke:#e1e0d9}
  .s1{fill:#2a78d6;stroke:#2a78d6}.s2{fill:#eb6834;stroke:#eb6834}.ring{stroke:#fcfcfb}
  .l1{fill:none;stroke:#2a78d6}.l2{fill:none;stroke:#eb6834}
  .ref{stroke:#8a8983}
  text{font-family:system-ui,-apple-system,'Segoe UI',Roboto,sans-serif}
  @media (prefers-color-scheme:dark){
    .bg{fill:#1a1a19}.t1{fill:#ffffff}.t2{fill:#c3c2b7}.grid{stroke:#2c2c2a}
    .s1{fill:#3987e5;stroke:#3987e5}.s2{fill:#d95926;stroke:#d95926}.ring{stroke:#1a1a19}
    .l1{stroke:#3987e5}.l2{stroke:#d95926}
    .ref{stroke:#8a8983}
  }
</style><rect class="bg" width="680" height="352" rx="10"/><text class="t1" x="24" y="34" font-size="17" font-weight="650">Threshold trade-off: retrieved messages</text><text class="t2" x="24" y="56" font-size="13">Lower threshold = more attacks caught, but more harmless messages blocked</text><rect class="s1" x="24" y="71" width="10" height="10" rx="2" stroke-width="0"/><text class="t2" x="40" y="80" font-size="12">attacks caught (recall)</text><rect class="s2" x="213.6" y="71" width="10" height="10" rx="2" stroke-width="0"/><text class="t2" x="229.6" y="80" font-size="12">harmless messages blocked (FPR)</text><line class="grid" x1="64" x2="570" y1="300.0" y2="300.0" stroke-width="1"/><text class="t2" x="56" y="304.0" font-size="11" text-anchor="end">0%</text><line class="grid" x1="64" x2="570" y1="249.0" y2="249.0" stroke-width="1"/><text class="t2" x="56" y="253.0" font-size="11" text-anchor="end">25%</text><line class="grid" x1="64" x2="570" y1="198.0" y2="198.0" stroke-width="1"/><text class="t2" x="56" y="202.0" font-size="11" text-anchor="end">50%</text><line class="grid" x1="64" x2="570" y1="147.0" y2="147.0" stroke-width="1"/><text class="t2" x="56" y="151.0" font-size="11" text-anchor="end">75%</text><line class="grid" x1="64" x2="570" y1="96.0" y2="96.0" stroke-width="1"/><text class="t2" x="56" y="100.0" font-size="11" text-anchor="end">100%</text><text class="t2" x="64.0" y="318" font-size="11" text-anchor="middle">0.00</text><text class="t2" x="190.5" y="318" font-size="11" text-anchor="middle">0.25</text><text class="t2" x="317.0" y="318" font-size="11" text-anchor="middle">0.50</text><text class="t2" x="443.5" y="318" font-size="11" text-anchor="middle">0.75</text><text class="t2" x="570.0" y="318" font-size="11" text-anchor="middle">1.00</text><text class="t2" x="317.0" y="338" font-size="12" text-anchor="middle">block threshold</text><line class="ref" x1="291.70000000000005" x2="291.70000000000005" y1="92" y2="300" stroke-width="1"/><text class="t2" x="296.70000000000005" y="104" font-size="11">current: 0.45</text><polyline class="l1" points="89.3,96.0 114.6,125.1 139.9,125.1 165.2,125.1 190.5,125.1 215.8,125.1 241.1,125.1 266.4,125.1 291.7,125.1 317.0,125.1 342.3,125.1 367.6,125.1 392.9,125.1 418.2,125.1 443.5,154.3 468.8,154.3 494.1,183.4 519.4,183.4 544.7,212.6" stroke-width="2" stroke-linejoin="round" stroke-linecap="round"/><circle class="s1 ring" cx="89.3" cy="96.0" r="4" stroke-width="2"><title>threshold 0.05: recall 100%</title></circle><circle class="s1 ring" cx="114.6" cy="125.1" r="4" stroke-width="2"><title>threshold 0.10: recall 86%</title></circle><circle class="s1 ring" cx="139.9" cy="125.1" r="4" stroke-width="2"><title>threshold 0.15: recall 86%</title></circle><circle class="s1 ring" cx="165.2" cy="125.1" r="4" stroke-width="2"><title>threshold 0.20: recall 86%</title></circle><circle class="s1 ring" cx="190.5" cy="125.1" r="4" stroke-width="2"><title>threshold 0.25: recall 86%</title></circle><circle class="s1 ring" cx="215.8" cy="125.1" r="4" stroke-width="2"><title>threshold 0.30: recall 86%</title></circle><circle class="s1 ring" cx="241.1" cy="125.1" r="4" stroke-width="2"><title>threshold 0.35: recall 86%</title></circle><circle class="s1 ring" cx="266.4" cy="125.1" r="4" stroke-width="2"><title>threshold 0.40: recall 86%</title></circle><circle class="s1 ring" cx="291.7" cy="125.1" r="4" stroke-width="2"><title>threshold 0.45: recall 86%</title></circle><circle class="s1 ring" cx="317.0" cy="125.1" r="4" stroke-width="2"><title>threshold 0.50: recall 86%</title></circle><circle class="s1 ring" cx="342.3" cy="125.1" r="4" stroke-width="2"><title>threshold 0.55: recall 86%</title></circle><circle class="s1 ring" cx="367.6" cy="125.1" r="4" stroke-width="2"><title>threshold 0.60: recall 86%</title></circle><circle class="s1 ring" cx="392.9" cy="125.1" r="4" stroke-width="2"><title>threshold 0.65: recall 86%</title></circle><circle class="s1 ring" cx="418.2" cy="125.1" r="4" stroke-width="2"><title>threshold 0.70: recall 86%</title></circle><circle class="s1 ring" cx="443.5" cy="154.3" r="4" stroke-width="2"><title>threshold 0.75: recall 71%</title></circle><circle class="s1 ring" cx="468.8" cy="154.3" r="4" stroke-width="2"><title>threshold 0.80: recall 71%</title></circle><circle class="s1 ring" cx="494.1" cy="183.4" r="4" stroke-width="2"><title>threshold 0.85: recall 57%</title></circle><circle class="s1 ring" cx="519.4" cy="183.4" r="4" stroke-width="2"><title>threshold 0.90: recall 57%</title></circle><circle class="s1 ring" cx="544.7" cy="212.6" r="4" stroke-width="2"><title>threshold 0.95: recall 43%</title></circle><polyline class="l2" points="89.3,300.0 114.6,300.0 139.9,300.0 165.2,300.0 190.5,300.0 215.8,300.0 241.1,300.0 266.4,300.0 291.7,300.0 317.0,300.0 342.3,300.0 367.6,300.0 392.9,300.0 418.2,300.0 443.5,300.0 468.8,300.0 494.1,300.0 519.4,300.0 544.7,300.0" stroke-width="2" stroke-linejoin="round" stroke-linecap="round"/><circle class="s2 ring" cx="89.3" cy="300.0" r="4" stroke-width="2"><title>threshold 0.05: FPR 0%</title></circle><circle class="s2 ring" cx="114.6" cy="300.0" r="4" stroke-width="2"><title>threshold 0.10: FPR 0%</title></circle><circle class="s2 ring" cx="139.9" cy="300.0" r="4" stroke-width="2"><title>threshold 0.15: FPR 0%</title></circle><circle class="s2 ring" cx="165.2" cy="300.0" r="4" stroke-width="2"><title>threshold 0.20: FPR 0%</title></circle><circle class="s2 ring" cx="190.5" cy="300.0" r="4" stroke-width="2"><title>threshold 0.25: FPR 0%</title></circle><circle class="s2 ring" cx="215.8" cy="300.0" r="4" stroke-width="2"><title>threshold 0.30: FPR 0%</title></circle><circle class="s2 ring" cx="241.1" cy="300.0" r="4" stroke-width="2"><title>threshold 0.35: FPR 0%</title></circle><circle class="s2 ring" cx="266.4" cy="300.0" r="4" stroke-width="2"><title>threshold 0.40: FPR 0%</title></circle><circle class="s2 ring" cx="291.7" cy="300.0" r="4" stroke-width="2"><title>threshold 0.45: FPR 0%</title></circle><circle class="s2 ring" cx="317.0" cy="300.0" r="4" stroke-width="2"><title>threshold 0.50: FPR 0%</title></circle><circle class="s2 ring" cx="342.3" cy="300.0" r="4" stroke-width="2"><title>threshold 0.55: FPR 0%</title></circle><circle class="s2 ring" cx="367.6" cy="300.0" r="4" stroke-width="2"><title>threshold 0.60: FPR 0%</title></circle><circle class="s2 ring" cx="392.9" cy="300.0" r="4" stroke-width="2"><title>threshold 0.65: FPR 0%</title></circle><circle class="s2 ring" cx="418.2" cy="300.0" r="4" stroke-width="2"><title>threshold 0.70: FPR 0%</title></circle><circle class="s2 ring" cx="443.5" cy="300.0" r="4" stroke-width="2"><title>threshold 0.75: FPR 0%</title></circle><circle class="s2 ring" cx="468.8" cy="300.0" r="4" stroke-width="2"><title>threshold 0.80: FPR 0%</title></circle><circle class="s2 ring" cx="494.1" cy="300.0" r="4" stroke-width="2"><title>threshold 0.85: FPR 0%</title></circle><circle class="s2 ring" cx="519.4" cy="300.0" r="4" stroke-width="2"><title>threshold 0.90: FPR 0%</title></circle><circle class="s2 ring" cx="544.7" cy="300.0" r="4" stroke-width="2"><title>threshold 0.95: FPR 0%</title></circle></svg>